<svg xmlns="http://www.w3.org/2000/svg" xmlns:xlink="http://www.w3.org/1999/xlink" width="2000" zoomAndPan="magnify" viewBox="0 0 1500 1499.999933" height="2000" preserveAspectRatio="xMidYMid meet" version="1.0"><defs><g/><clipPath id="be257e216b"><path d="M 388.042969 332.75 L 982.792969 332.75 L 982.792969 902.75 L 388.042969 902.75 Z M 388.042969 332.75 " clip-rule="nonzero"/></clipPath><clipPath id="3ef411aa08"><path d="M 545.425781 363.695312 C 558.6875 363.695312 569.433594 374.449219 569.433594 387.714844 C 569.433594 400.980469 558.6875 411.730469 545.425781 411.730469 C 532.164062 411.730469 521.417969 400.980469 521.417969 387.714844 C 521.417969 374.449219 532.164062 363.695312 545.425781 363.695312 Z M 563.574219 483.234375 C 575.183594 483.234375 584.601562 492.65625 584.601562 504.273438 C 584.601562 515.890625 575.183594 525.308594 563.574219 525.308594 C 551.960938 525.308594 542.550781 515.890625 542.550781 504.273438 C 542.550781 492.65625 551.960938 483.234375 563.574219 483.234375 Z M 419.539062 440.234375 C 436.9375 440.234375 451.042969 454.34375 451.042969 471.742188 C 451.042969 489.148438 436.9375 503.265625 419.539062 503.265625 C 402.144531 503.265625 388.046875 489.148438 388.046875 471.742188 C 388.046875 454.34375 402.144531 440.234375 419.539062 440.234375 Z M 647.296875 687.65625 C 635.574219 687.65625 626.074219 697.160156 626.074219 708.890625 C 626.074219 720.613281 635.574219 730.121094 647.296875 730.121094 C 659.019531 730.121094 668.523438 720.613281 668.523438 708.890625 C 668.523438 697.160156 659.019531 687.65625 647.296875 687.65625 Z M 520.953125 604.066406 C 537.53125 604.066406 550.96875 617.515625 550.96875 634.101562 C 550.96875 650.691406 537.53125 664.140625 520.953125 664.140625 C 504.371094 664.140625 490.933594 650.691406 490.933594 634.101562 C 490.933594 617.515625 504.371094 604.066406 520.953125 604.066406 Z M 819.5 434.414062 C 810.429688 436.832031 800.671875 440.222656 790.566406 444.519531 C 791.160156 446.875 791.476562 449.339844 791.476562 451.878906 C 791.476562 452.828125 791.433594 453.761719 791.34375 454.683594 C 792.273438 455.023438 793.191406 455.367188 794.105469 455.714844 C 797.375 456.957031 800.605469 458.253906 803.789062 459.605469 C 842.597656 476.011719 875.074219 500.101562 896.980469 527.390625 C 893.628906 513.792969 888.496094 500.621094 881.753906 488.050781 C 872.675781 471.105469 860.652344 455.222656 846.148438 440.828125 C 843.195312 442.667969 839.71875 443.730469 835.984375 443.730469 C 828.996094 443.730469 822.867188 440 819.496094 434.414062 Z M 712.613281 370.335938 C 728.589844 384.382812 742.765625 402.082031 754.648438 422.617188 C 756.835938 422.109375 759.117188 421.84375 761.457031 421.84375 C 771.074219 421.84375 779.636719 426.367188 785.128906 433.410156 C 796.191406 428.675781 806.898438 424.957031 816.855469 422.324219 C 817.054688 420.511719 817.511719 418.769531 818.179688 417.144531 C 814.914062 414.777344 811.574219 412.476562 808.152344 410.238281 C 781.199219 392.605469 749.519531 379.003906 714.546875 370.78125 Z M 736.261719 704.207031 C 741.183594 696.089844 745.8125 687.792969 750.089844 679.375 C 752.035156 675.539062 753.90625 671.683594 755.703125 667.804688 C 764.949219 647.835938 772.113281 627.324219 776.480469 606.949219 C 766.292969 602.359375 759.195312 592.121094 759.195312 580.21875 C 759.195312 566.664062 768.398438 555.253906 780.898438 551.917969 C 780.757812 549.921875 780.585938 547.933594 780.375 545.953125 C 778.671875 529.902344 775.894531 514.386719 772.144531 499.574219 C 771.800781 498.226562 771.453125 496.878906 771.097656 495.539062 C 769.816406 490.75 768.4375 486.035156 766.957031 481.410156 C 765.171875 481.738281 763.335938 481.914062 761.457031 481.914062 C 752.882812 481.914062 745.152344 478.320312 739.683594 472.554688 C 738.433594 473.40625 737.191406 474.269531 735.945312 475.144531 C 734.355469 476.265625 732.769531 477.410156 731.195312 478.5625 C 710.710938 493.609375 691.433594 511.746094 676.03125 532.425781 C 681.417969 537.773438 684.753906 545.183594 684.753906 553.367188 C 684.753906 564.90625 678.132812 574.894531 668.492188 579.742188 L 668.589844 580.046875 C 681.566406 620.027344 706.21875 664.613281 736.261719 704.207031 Z M 878.96875 647.242188 C 880.445312 644.875 881.878906 642.484375 883.292969 640.074219 C 892.285156 621.808594 897.800781 603.554688 900.175781 585.640625 C 901.125 578.460938 901.574219 571.335938 901.546875 564.269531 C 901.53125 561.40625 901.441406 558.550781 901.273438 555.710938 C 900.074219 553.558594 898.808594 551.429688 897.464844 549.300781 C 877.628906 517.859375 842.589844 489.421875 798.992188 470.984375 C 795.289062 469.417969 791.507812 467.925781 787.679688 466.503906 C 785.414062 470.558594 782.238281 474.035156 778.425781 476.652344 C 781.039062 484.742188 783.367188 493.074219 785.382812 501.617188 C 787.523438 510.691406 789.316406 520.003906 790.746094 529.515625 C 791.496094 534.503906 792.136719 539.550781 792.683594 544.648438 C 792.914062 546.859375 793.105469 549.082031 793.257812 551.308594 C 807.15625 553.59375 817.761719 565.664062 817.761719 580.21875 C 817.761719 584.542969 816.832031 588.65625 815.144531 592.347656 C 824.890625 600.71875 834.609375 610.4375 844.152344 621.214844 C 848.785156 626.453125 853.386719 631.941406 857.917969 637.648438 C 860.472656 640.863281 862.996094 644.136719 865.507812 647.472656 C 867.726562 646.707031 870.105469 646.285156 872.589844 646.285156 C 874.8125 646.285156 876.953125 646.621094 878.96875 647.242188 Z M 756.949219 748.183594 C 753.921875 744.917969 750.929688 741.585938 747.96875 738.195312 C 744.625 734.359375 741.316406 730.441406 738.0625 726.457031 L 737.328125 725.554688 C 736.214844 727.222656 735.09375 728.878906 733.957031 730.527344 C 716.164062 756.394531 695.699219 779.929688 674.46875 799.382812 C 700.925781 792.480469 728.578125 781 755.441406 765.40625 C 754.695312 763.234375 754.289062 760.902344 754.289062 758.480469 C 754.289062 754.742188 755.25 751.238281 756.945312 748.1875 Z M 855.460938 654.710938 C 848.882812 645.960938 842.15625 637.667969 835.355469 629.941406 C 826.242188 619.601562 816.988281 610.28125 807.75 602.28125 C 802.621094 606.769531 795.914062 609.492188 788.578125 609.515625 C 783.640625 632.535156 775.339844 655.632812 764.597656 677.941406 C 763.472656 680.285156 762.3125 682.617188 761.132812 684.945312 C 756.003906 695.042969 750.386719 704.953125 744.375 714.617188 C 745.207031 715.65625 746.035156 716.683594 746.871094 717.707031 C 750.285156 721.898438 753.757812 726.019531 757.269531 730.054688 C 760.09375 733.289062 762.945312 736.464844 765.816406 739.582031 C 768.726562 738.089844 772.015625 737.246094 775.511719 737.246094 C 781.023438 737.246094 786.046875 739.347656 789.820312 742.792969 C 796.164062 738.097656 802.410156 733.164062 808.527344 727.996094 C 815.660156 721.96875 822.628906 715.628906 829.367188 708.988281 C 838.382812 700.082031 847 690.636719 855.09375 680.671875 C 852.492188 677.097656 850.949219 672.695312 850.949219 667.933594 C 850.949219 662.953125 852.636719 658.367188 855.460938 654.710938 Z M 836.863281 812.589844 C 819.980469 803.792969 802.867188 791.535156 786.175781 776.835938 C 783.042969 778.660156 779.398438 779.710938 775.511719 779.710938 C 770.71875 779.710938 766.296875 778.121094 762.746094 775.4375 C 734.214844 792.125 704.757812 804.339844 676.609375 811.59375 C 676.53125 813.210938 676.308594 814.785156 675.941406 816.304688 L 760.09375 861.128906 C 760.335938 860.867188 760.582031 860.601562 760.832031 860.355469 L 760.855469 860.332031 C 765.34375 855.847656 771.527344 853.074219 778.34375 853.074219 C 779.625 853.074219 780.890625 853.175781 782.125 853.363281 C 797.636719 826.542969 821.039062 816.410156 836.863281 812.589844 Z M 924.472656 776.910156 C 920.957031 768.296875 917.148438 759.652344 913.089844 751.035156 C 904.671875 733.171875 895.175781 715.449219 884.921875 698.480469 C 882.925781 695.179688 880.898438 691.902344 878.851562 688.667969 C 876.867188 689.265625 874.769531 689.585938 872.59375 689.585938 C 869.890625 689.585938 867.308594 689.085938 864.925781 688.1875 C 856.476562 698.617188 847.46875 708.5 838.035156 717.804688 C 831.136719 724.617188 824.007812 731.109375 816.6875 737.292969 C 809.980469 742.960938 803.121094 748.363281 796.140625 753.484375 C 796.527344 755.089844 796.734375 756.761719 796.734375 758.480469 C 796.734375 761.832031 795.953125 765.003906 794.570312 767.824219 C 815.050781 785.886719 836.023438 799.976562 856.082031 807.96875 C 865.992188 811.925781 875.683594 814.386719 884.976562 815.105469 C 886.242188 815.207031 887.503906 815.277344 888.75 815.308594 C 894.425781 815.03125 900.867188 814.148438 908.316406 812.367188 C 925.367188 808.292969 925.640625 789.550781 924.476562 776.910156 Z M 920.777344 587.203125 C 915.898438 601.976562 909.929688 616.167969 903.027344 629.738281 C 900.265625 635.175781 897.359375 640.507812 894.308594 645.742188 C 892.847656 648.707031 891.296875 651.671875 889.667969 654.636719 C 892.527344 658.304688 894.226562 662.921875 894.226562 667.9375 C 894.226562 673.226562 892.332031 678.078125 889.183594 681.835938 L 889.269531 681.976562 C 903.367188 704.242188 916.246094 728.035156 927.164062 751.949219 C 929.046875 749.664062 930.960938 748.699219 931.324219 748.535156 C 933.441406 747.445312 934.992188 746.105469 936.007812 744.644531 C 936.957031 743.269531 937.464844 741.75 937.539062 740.210938 C 937.613281 738.597656 937.238281 736.917969 936.421875 735.300781 C 935.425781 733.324219 933.789062 731.453125 931.558594 729.898438 C 930.382812 729.089844 929.476562 727.863281 929.089844 726.363281 C 928.234375 723.058594 930.21875 719.683594 933.523438 718.824219 C 943.433594 716.25 943.847656 709.714844 942.296875 703.753906 C 941.507812 700.730469 940.25 697.601562 939.1875 694.953125 C 938.683594 693.707031 938.21875 692.554688 937.8125 691.4375 C 933.109375 678.433594 944.894531 672.632812 959.589844 665.390625 C 961.699219 664.351562 963.886719 663.273438 966.128906 662.121094 C 969.988281 660.125 970.726562 657.535156 969.734375 654.65625 C 968.027344 649.679688 963.109375 643.65625 957.578125 637.539062 C 950.621094 629.839844 941.011719 618.117188 933.015625 606.859375 C 928.070312 599.898438 923.679688 593.023438 920.777344 587.203125 Z M 887.855469 429.179688 C 872.699219 409.488281 854.859375 395.089844 835.386719 384.835938 C 804.789062 368.722656 770.03125 362.710938 735.253906 362.378906 C 734.429688 362.375 733.117188 362.367188 731.441406 362.375 C 762.332031 371.066406 790.496094 383.875 814.9375 399.871094 C 818.84375 402.425781 822.652344 405.0625 826.371094 407.777344 C 829.203125 406.144531 832.484375 405.207031 835.984375 405.207031 C 844.824219 405.207031 852.273438 411.171875 854.535156 419.292969 C 858.480469 419.78125 862.242188 420.449219 865.824219 421.265625 C 874.050781 423.144531 881.359375 425.851562 887.855469 429.179688 Z M 912.359375 469.789062 C 911.648438 469.207031 911.066406 468.457031 910.664062 467.566406 C 910.25 466.660156 909.835938 465.757812 909.410156 464.863281 C 908.410156 463.320312 907.34375 461.796875 906.207031 460.308594 C 896.972656 448.15625 883.1875 437.9375 863.070312 433.332031 L 861.988281 433.09375 C 859.605469 432.582031 857.144531 432.140625 854.597656 431.78125 C 857.257812 434.410156 859.832031 437.085938 862.324219 439.808594 C 874.394531 452.964844 884.589844 467.191406 892.65625 482.234375 C 904.425781 504.183594 911.628906 527.855469 913.453125 552.460938 C 913.808594 557.257812 913.960938 562.097656 913.902344 566.964844 C 915.574219 560.632812 917.046875 554.199219 918.289062 547.664062 C 918.628906 545.875 918.953125 544.078125 919.261719 542.273438 L 919.335938 541.828125 L 919.371094 541.609375 L 919.410156 541.386719 L 919.769531 539.167969 C 919.808594 538.933594 919.859375 538.699219 919.921875 538.472656 C 921.066406 532.167969 922.160156 527.417969 922.472656 526.050781 C 922.5 525.929688 922.523438 525.8125 922.546875 525.695312 C 922.917969 524.066406 923.207031 522.066406 923.386719 519.753906 C 923.523438 518.078125 923.589844 516.238281 923.589844 514.253906 C 923.574219 502.050781 920.8125 485.195312 912.359375 469.792969 Z M 653.136719 426.382812 C 661.050781 426.382812 667.867188 431.070312 670.964844 437.824219 C 673.628906 437.625 676.296875 437.460938 678.949219 437.335938 C 697.710938 436.457031 716.097656 437.457031 733.851562 440.066406 C 735.921875 435.214844 739.238281 431.023438 743.390625 427.890625 C 730.929688 406.578125 715.917969 388.617188 698.988281 375.035156 C 694.78125 378.683594 689.292969 380.886719 683.289062 380.886719 C 670.035156 380.886719 659.292969 370.136719 659.292969 356.878906 C 659.292969 343.617188 670.035156 332.871094 683.289062 332.871094 C 694.214844 332.871094 703.4375 340.175781 706.335938 350.171875 C 718.597656 350.035156 731.6875 349.988281 735.347656 350.019531 C 771.941406 350.367188 808.628906 356.753906 841.152344 373.882812 C 873.003906 390.660156 900.753906 417.625 920.375 459.089844 C 921.015625 460.105469 921.632812 461.125 922.226562 462.15625 C 932.578125 480.105469 935.921875 499.992188 935.9375 514.25 C 935.949219 519.96875 935.425781 524.863281 934.601562 528.453125 C 934.574219 528.589844 934.542969 528.710938 934.503906 528.839844 C 934.210938 530.082031 933.152344 534.652344 932.039062 540.625 C 932.023438 540.785156 932.003906 540.945312 931.976562 541.109375 C 931.539062 543.847656 931.070312 546.566406 930.558594 549.269531 C 928.9375 560.015625 927.921875 572.105469 930.226562 578.082031 C 932.363281 583.625 937.273438 591.488281 943.089844 599.683594 C 950.867188 610.632812 960.101562 621.914062 966.730469 629.25 C 973.238281 636.441406 979.089844 643.730469 981.457031 650.632812 C 984.546875 659.632812 982.667969 667.507812 971.800781 673.117188 C 969.542969 674.285156 967.261719 675.402344 965.066406 676.488281 C 955.875 681.011719 948.507812 684.648438 949.441406 687.21875 C 949.746094 688.070312 950.1875 689.164062 950.667969 690.347656 C 951.851562 693.296875 953.261719 696.792969 954.261719 700.652344 C 956.777344 710.320312 956.6875 720.742188 945.929688 727.097656 C 946.503906 727.953125 947.023438 728.835938 947.472656 729.734375 C 949.25 733.257812 950.078125 737.046875 949.890625 740.789062 C 949.710938 744.609375 948.488281 748.339844 946.175781 751.671875 C 943.992188 754.824219 940.867188 757.582031 936.753906 759.652344 L 936.5625 759.746094 C 936.5625 759.753906 935.378906 760.183594 935.636719 765.140625 C 935.683594 765.9375 935.882812 767.570312 936.117188 769.535156 C 937.976562 784.660156 941.945312 817.027344 911.175781 824.386719 C 893.839844 828.53125 881.335938 828.34375 871.445312 826.855469 C 865.964844 826.027344 861.289062 824.796875 857.039062 823.675781 C 855.761719 823.34375 854.53125 823.019531 853.171875 822.683594 C 852.128906 822.710938 849.902344 822.816406 846.847656 823.242188 C 843.519531 823.707031 839.203125 824.558594 834.367188 826.097656 C 821.644531 830.152344 805.289062 839.011719 793.597656 858.351562 C 794.378906 858.96875 795.128906 859.625 795.835938 860.335938 L 795.855469 860.355469 C 800.335938 864.847656 803.109375 871.035156 803.109375 877.851562 C 803.109375 884.667969 800.335938 890.851562 795.855469 895.34375 L 795.84375 895.355469 L 795.835938 895.367188 C 791.339844 899.855469 785.15625 902.628906 778.34375 902.628906 C 771.527344 902.628906 765.339844 899.855469 760.855469 895.371094 L 760.832031 895.347656 C 756.355469 890.863281 753.578125 884.675781 753.578125 877.851562 C 753.578125 875.84375 753.816406 873.894531 754.265625 872.027344 L 670.117188 827.203125 C 669.875 827.464844 669.628906 827.722656 669.375 827.976562 L 669.367188 827.992188 L 669.351562 828 C 664.859375 832.484375 658.675781 835.257812 651.867188 835.257812 C 645.039062 835.257812 638.859375 832.484375 634.375 828.003906 L 634.355469 827.980469 C 629.871094 823.492188 627.097656 817.304688 627.097656 810.484375 C 627.097656 803.660156 629.871094 797.472656 634.355469 792.984375 L 634.375 792.957031 C 638.859375 788.480469 645.039062 785.707031 651.867188 785.707031 C 657.160156 785.707031 662.078125 787.378906 666.117188 790.238281 C 688.898438 769.378906 710.78125 743.644531 729.246094 715.355469 C 703.496094 682.019531 681.351562 644.882812 666.449219 609.503906 C 662.648438 600.46875 659.316406 591.550781 656.515625 582.835938 C 656.105469 582.851562 655.695312 582.867188 655.277344 582.867188 C 638.996094 582.867188 625.796875 569.664062 625.796875 553.371094 C 625.796875 537.078125 638.996094 523.878906 655.277344 523.878906 C 658.90625 523.878906 662.382812 524.535156 665.59375 525.734375 C 668.054688 522.410156 670.609375 519.140625 673.242188 515.945312 C 686.480469 499.882812 701.832031 485.476562 718.046875 472.972656 C 721.605469 470.230469 725.199219 467.578125 728.828125 465.019531 C 730.273438 463.996094 731.730469 462.988281 733.1875 461.996094 C 732.09375 458.9375 731.480469 455.644531 731.445312 452.214844 C 714.183594 449.726562 696.296875 448.820312 678.046875 449.777344 C 676.136719 449.878906 674.21875 449.996094 672.296875 450.140625 C 670.394531 458.976562 662.539062 465.597656 653.140625 465.597656 C 642.308594 465.597656 633.539062 456.824219 633.539062 445.988281 C 633.539062 435.15625 642.308594 426.378906 653.140625 426.378906 Z M 653.136719 426.382812 " clip-rule="evenodd"/></clipPath><linearGradient x1="-587.405865" gradientTransform="matrix(0.0886706, 0, 0, 0.0887139, 388.044176, 332.870085)" y1="5293.805453" x2="7320.489414" gradientUnits="userSpaceOnUse" y2="1177.901551" id="8a824dddb6"><stop stop-opacity="1" stop-color="rgb(25.489807%, 74.508667%, 91.758728%)" offset="0"/><stop stop-opacity="1" stop-color="rgb(25.489807%, 74.508667%, 91.758728%)" offset="0.25"/><stop stop-opacity="1" stop-color="rgb(25.489807%, 74.508667%, 91.758728%)" offset="0.332606"/><stop stop-opacity="1" stop-color="rgb(25.489807%, 74.508667%, 91.758728%)" offset="0.375"/><stop stop-opacity="1" stop-color="rgb(25.489807%, 74.508667%, 91.758728%)" offset="0.4375"/><stop stop-opacity="1" stop-color="rgb(25.486755%, 74.497986%, 91.751099%)" offset="0.453125"/><stop stop-opacity="1" stop-color="rgb(25.431824%, 74.191284%, 91.542053%)" offset="0.457031"/><stop stop-opacity="1" stop-color="rgb(25.378418%, 73.893738%, 91.340637%)" offset="0.460938"/><stop stop-opacity="1" stop-color="rgb(25.325012%, 73.596191%, 91.137695%)" offset="0.464844"/><stop stop-opacity="1" stop-color="rgb(25.271606%, 73.298645%, 90.936279%)" offset="0.46875"/><stop stop-opacity="1" stop-color="rgb(25.218201%, 73.001099%, 90.733337%)" offset="0.472656"/><stop stop-opacity="1" stop-color="rgb(25.164795%, 72.703552%, 90.531921%)" offset="0.476562"/><stop stop-opacity="1" stop-color="rgb(25.109863%, 72.406006%, 90.328979%)" offset="0.480469"/><stop stop-opacity="1" stop-color="rgb(25.056458%, 72.108459%, 90.127563%)" offset="0.484375"/><stop stop-opacity="1" stop-color="rgb(25.003052%, 71.810913%, 89.924622%)" offset="0.488281"/><stop stop-opacity="1" stop-color="rgb(24.949646%, 71.513367%, 89.723206%)" offset="0.492188"/><stop stop-opacity="1" stop-color="rgb(24.89624%, 71.21582%, 89.520264%)" offset="0.496094"/><stop stop-opacity="1" stop-color="rgb(24.842834%, 70.918274%, 89.317322%)" offset="0.5"/><stop stop-opacity="1" stop-color="rgb(24.789429%, 70.620728%, 89.11438%)" offset="0.503906"/><stop stop-opacity="1" stop-color="rgb(24.736023%, 70.323181%, 88.912964%)" offset="0.507812"/><stop stop-opacity="1" stop-color="rgb(24.682617%, 70.025635%, 88.710022%)" offset="0.511719"/><stop stop-opacity="1" stop-color="rgb(24.629211%, 69.728088%, 88.508606%)" offset="0.515625"/><stop stop-opacity="1" stop-color="rgb(24.57428%, 69.430542%, 88.305664%)" offset="0.519531"/><stop stop-opacity="1" stop-color="rgb(24.520874%, 69.132996%, 88.104248%)" offset="0.523438"/><stop stop-opacity="1" stop-color="rgb(24.467468%, 68.835449%, 87.901306%)" offset="0.527344"/><stop stop-opacity="1" stop-color="rgb(24.414062%, 68.537903%, 87.69989%)" offset="0.53125"/><stop stop-opacity="1" stop-color="rgb(24.360657%, 68.240356%, 87.496948%)" offset="0.535156"/><stop stop-opacity="1" stop-color="rgb(24.307251%, 67.94281%, 87.295532%)" offset="0.539062"/><stop stop-opacity="1" stop-color="rgb(24.253845%, 67.645264%, 87.09259%)" offset="0.542969"/><stop stop-opacity="1" stop-color="rgb(24.200439%, 67.347717%, 86.891174%)" offset="0.546875"/><stop stop-opacity="1" stop-color="rgb(24.145508%, 67.050171%, 86.688232%)" offset="0.550781"/><stop stop-opacity="1" stop-color="rgb(24.092102%, 66.752625%, 86.486816%)" offset="0.554688"/><stop stop-opacity="1" stop-color="rgb(24.038696%, 66.455078%, 86.283875%)" offset="0.558594"/><stop stop-opacity="1" stop-color="rgb(23.985291%, 66.157532%, 86.082458%)" offset="0.5625"/><stop stop-opacity="1" stop-color="rgb(23.931885%, 65.859985%, 85.879517%)" offset="0.566406"/><stop stop-opacity="1" stop-color="rgb(23.878479%, 65.562439%, 85.676575%)" offset="0.570312"/><stop stop-opacity="1" stop-color="rgb(23.825073%, 65.264893%, 85.473633%)" offset="0.574219"/><stop stop-opacity="1" stop-color="rgb(23.771667%, 64.967346%, 85.272217%)" offset="0.578125"/><stop stop-opacity="1" stop-color="rgb(23.718262%, 64.6698%, 85.069275%)" offset="0.582031"/><stop stop-opacity="1" stop-color="rgb(23.664856%, 64.372253%, 84.867859%)" offset="0.585938"/><stop stop-opacity="1" stop-color="rgb(23.609924%, 64.074707%, 84.664917%)" offset="0.589844"/><stop stop-opacity="1" stop-color="rgb(23.556519%, 63.777161%, 84.463501%)" offset="0.59375"/><stop stop-opacity="1" stop-color="rgb(23.503113%, 63.479614%, 84.260559%)" offset="0.597656"/><stop stop-opacity="1" stop-color="rgb(23.449707%, 63.182068%, 84.059143%)" offset="0.601562"/><stop stop-opacity="1" stop-color="rgb(23.396301%, 62.882996%, 83.856201%)" offset="0.605469"/><stop stop-opacity="1" stop-color="rgb(23.342896%, 62.585449%, 83.654785%)" offset="0.609375"/><stop stop-opacity="1" stop-color="rgb(23.28949%, 62.287903%, 83.451843%)" offset="0.613281"/><stop stop-opacity="1" stop-color="rgb(23.236084%, 61.990356%, 83.250427%)" offset="0.617188"/><stop stop-opacity="1" stop-color="rgb(23.182678%, 61.69281%, 83.047485%)" offset="0.621094"/><stop stop-opacity="1" stop-color="rgb(23.129272%, 61.395264%, 82.846069%)" offset="0.625"/><stop stop-opacity="1" stop-color="rgb(23.074341%, 61.097717%, 82.643127%)" offset="0.628906"/><stop stop-opacity="1" stop-color="rgb(23.020935%, 60.800171%, 82.440186%)" offset="0.632812"/><stop stop-opacity="1" stop-color="rgb(22.967529%, 60.502625%, 82.237244%)" offset="0.636719"/><stop stop-opacity="1" stop-color="rgb(22.914124%, 60.205078%, 82.035828%)" offset="0.640625"/><stop stop-opacity="1" stop-color="rgb(22.860718%, 59.907532%, 81.832886%)" offset="0.644531"/><stop stop-opacity="1" stop-color="rgb(22.807312%, 59.609985%, 81.63147%)" offset="0.648438"/><stop stop-opacity="1" stop-color="rgb(22.753906%, 59.312439%, 81.428528%)" offset="0.652344"/><stop stop-opacity="1" stop-color="rgb(22.7005%, 59.014893%, 81.227112%)" offset="0.65625"/><stop stop-opacity="1" stop-color="rgb(22.647095%, 58.717346%, 81.02417%)" offset="0.660156"/><stop stop-opacity="1" stop-color="rgb(22.593689%, 58.4198%, 80.822754%)" offset="0.664062"/><stop stop-opacity="1" stop-color="rgb(22.538757%, 58.122253%, 80.619812%)" offset="0.667969"/><stop stop-opacity="1" stop-color="rgb(22.485352%, 57.824707%, 80.418396%)" offset="0.671875"/><stop stop-opacity="1" stop-color="rgb(22.431946%, 57.527161%, 80.215454%)" offset="0.675781"/><stop stop-opacity="1" stop-color="rgb(22.37854%, 57.229614%, 80.014038%)" offset="0.679688"/><stop stop-opacity="1" stop-color="rgb(22.325134%, 56.932068%, 79.811096%)" offset="0.683594"/><stop stop-opacity="1" stop-color="rgb(22.271729%, 56.634521%, 79.60968%)" offset="0.6875"/><stop stop-opacity="1" stop-color="rgb(22.218323%, 56.336975%, 79.406738%)" offset="0.691406"/><stop stop-opacity="1" stop-color="rgb(22.164917%, 56.039429%, 79.205322%)" offset="0.695312"/><stop stop-opacity="1" stop-color="rgb(22.111511%, 55.741882%, 79.00238%)" offset="0.699219"/><stop stop-opacity="1" stop-color="rgb(22.058105%, 55.444336%, 78.799438%)" offset="0.703125"/><stop stop-opacity="1" stop-color="rgb(21.998596%, 55.119324%, 78.579712%)" offset="0.707031"/><stop stop-opacity="1" stop-color="rgb(21.939087%, 54.795837%, 78.359985%)" offset="0.710938"/><stop stop-opacity="1" stop-color="rgb(21.817017%, 54.176331%, 77.947998%)" offset="0.714844"/><stop stop-opacity="1" stop-color="rgb(21.696472%, 53.55835%, 77.536011%)" offset="0.71875"/><stop stop-opacity="1" stop-color="rgb(21.574402%, 52.938843%, 77.122498%)" offset="0.722656"/><stop stop-opacity="1" stop-color="rgb(21.453857%, 52.320862%, 76.71051%)" offset="0.726562"/><stop stop-opacity="1" stop-color="rgb(21.331787%, 51.701355%, 76.296997%)" offset="0.730469"/><stop stop-opacity="1" stop-color="rgb(21.211243%, 51.081848%, 75.88501%)" offset="0.734375"/><stop stop-opacity="1" stop-color="rgb(21.089172%, 50.462341%, 75.471497%)" offset="0.738281"/><stop stop-opacity="1" stop-color="rgb(20.968628%, 49.84436%, 75.059509%)" offset="0.742188"/><stop stop-opacity="1" stop-color="rgb(20.846558%, 49.224854%, 74.647522%)" offset="0.746094"/><stop stop-opacity="1" stop-color="rgb(20.726013%, 48.606873%, 74.235535%)" offset="0.75"/><stop stop-opacity="1" stop-color="rgb(20.603943%, 47.987366%, 73.822021%)" offset="0.753906"/><stop stop-opacity="1" stop-color="rgb(20.483398%, 47.367859%, 73.410034%)" offset="0.757812"/><stop stop-opacity="1" stop-color="rgb(20.361328%, 46.748352%, 72.996521%)" offset="0.761719"/><stop stop-opacity="1" stop-color="rgb(20.240784%, 46.130371%, 72.584534%)" offset="0.765625"/><stop stop-opacity="1" stop-color="rgb(20.118713%, 45.510864%, 72.172546%)" offset="0.769531"/><stop stop-opacity="1" stop-color="rgb(19.998169%, 44.892883%, 71.760559%)" offset="0.773438"/><stop stop-opacity="1" stop-color="rgb(19.876099%, 44.273376%, 71.347046%)" offset="0.777344"/><stop stop-opacity="1" stop-color="rgb(19.755554%, 43.655396%, 70.935059%)" offset="0.78125"/><stop stop-opacity="1" stop-color="rgb(19.633484%, 43.035889%, 70.521545%)" offset="0.785156"/><stop stop-opacity="1" stop-color="rgb(19.512939%, 42.416382%, 70.109558%)" offset="0.789063"/><stop stop-opacity="1" stop-color="rgb(19.390869%, 41.796875%, 69.696045%)" offset="0.792969"/><stop stop-opacity="1" stop-color="rgb(19.270325%, 41.178894%, 69.284058%)" offset="0.796875"/><stop stop-opacity="1" stop-color="rgb(19.148254%, 40.559387%, 68.87207%)" offset="0.800781"/><stop stop-opacity="1" stop-color="rgb(19.02771%, 39.941406%, 68.460083%)" offset="0.804688"/><stop stop-opacity="1" stop-color="rgb(18.90564%, 39.321899%, 68.04657%)" offset="0.808594"/><stop stop-opacity="1" stop-color="rgb(18.785095%, 38.703918%, 67.634583%)" offset="0.8125"/><stop stop-opacity="1" stop-color="rgb(18.663025%, 38.084412%, 67.221069%)" offset="0.816406"/><stop stop-opacity="1" stop-color="rgb(18.54248%, 37.464905%, 66.809082%)" offset="0.820312"/><stop stop-opacity="1" stop-color="rgb(18.42041%, 36.845398%, 66.397095%)" offset="0.824219"/><stop stop-opacity="1" stop-color="rgb(18.299866%, 36.227417%, 65.985107%)" offset="0.828125"/><stop stop-opacity="1" stop-color="rgb(18.177795%, 35.60791%, 65.571594%)" offset="0.832031"/><stop stop-opacity="1" stop-color="rgb(18.057251%, 34.989929%, 65.159607%)" offset="0.835937"/><stop stop-opacity="1" stop-color="rgb(18.048096%, 34.944153%, 65.129089%)" offset="0.84375"/><stop stop-opacity="1" stop-color="rgb(18.03894%, 34.899902%, 65.098572%)" offset="0.875"/><stop stop-opacity="1" stop-color="rgb(18.03894%, 34.899902%, 65.098572%)" offset="1"/></linearGradient><clipPath id="84919da21c"><rect x="0" width="403" y="0" height="187"/></clipPath></defs><rect x="-150" width="1800" fill="#ffffff" y="-149.999993" height="1799.99992" fill-opacity="1"/><rect x="-150" width="1800" fill="#16171c" y="-149.999993" height="1799.99992" fill-opacity="1"/><g clip-path="url(#be257e216b)"><g clip-path="url(#3ef411aa08)"><path fill="url(#8a824dddb6)" d="M 388.046875 332.871094 L 388.046875 902.628906 L 982.792969 902.628906 L 982.792969 332.871094 Z M 388.046875 332.871094 " fill-rule="nonzero"/></g></g><g transform="matrix(1, 0, 0, 1, 552, 904)"><g clip-path="url(#84919da21c)"><g fill="#ffffff" fill-opacity="1"><g transform="translate(2.586723, 147.609694)"><g><path d="M 50.59375 -44.25 L 33.828125 -27.03125 L 33.828125 0 L 14.203125 0 L 14.203125 -105.734375 L 33.828125 -105.734375 L 33.828125 -51.5 L 86.09375 -105.734375 L 108.15625 -105.734375 L 63.734375 -58.453125 L 110.875 0 L 87.90625 0 Z M 50.59375 -44.25 "/></g></g></g><g fill="#ffffff" fill-opacity="1"><g transform="translate(120.430478, 147.609694)"><g/></g></g><g fill="#ffffff" fill-opacity="1"><g transform="translate(169.819832, 147.609694)"><g/></g></g><g fill="#ffffff" fill-opacity="1"><g transform="translate(219.209186, 147.609694)"><g/></g></g><g fill="#ffffff" fill-opacity="1"><g transform="translate(268.602325, 147.609694)"><g><path d="M 14.203125 -105.734375 L 60.421875 -105.734375 C 71.703125 -105.734375 81.722656 -103.539062 90.484375 -99.15625 C 99.242188 -94.78125 106.039062 -88.585938 110.875 -80.578125 C 115.707031 -72.578125 118.125 -63.335938 118.125 -52.859375 C 118.125 -42.390625 115.707031 -33.148438 110.875 -25.140625 C 106.039062 -17.140625 99.242188 -10.945312 90.484375 -6.5625 C 81.722656 -2.1875 71.703125 0 60.421875 0 L 14.203125 0 Z M 59.515625 -16.609375 C 67.265625 -16.609375 74.082031 -18.09375 79.96875 -21.0625 C 85.863281 -24.039062 90.394531 -28.269531 93.5625 -33.75 C 96.738281 -39.238281 98.328125 -45.609375 98.328125 -52.859375 C 98.328125 -60.109375 96.738281 -66.476562 93.5625 -71.96875 C 90.394531 -77.457031 85.863281 -81.6875 79.96875 -84.65625 C 74.082031 -87.632812 67.265625 -89.125 59.515625 -89.125 L 33.828125 -89.125 L 33.828125 -16.609375 Z M 59.515625 -16.609375 "/></g></g></g></g></g></svg>